<svg height="512pt" viewBox="-65 0 512 512.0013" width="512pt" xmlns="http://www.w3.org/2000/svg"><path d="m123.019531 249.933594c48.535157 0 88.023438-39.488282 88.023438-88.023438 0-38.953125-54.015625-124.101562-75.140625-155.105468-6.1875-9.082032-19.589844-9.066407-25.765625 0-21.34375 31.324218-75.140625 116.238281-75.140625 155.105468-.003906 48.535156 39.484375 88.023438 88.023437 88.023438zm0-206.003906c25.851563 40.488281 56.84375 96.152343 56.84375 117.980468 0 31.34375-25.5 56.84375-56.84375 56.84375s-56.84375-25.5-56.84375-56.84375c0-21.808594 30.992188-77.480468 56.84375-117.980468zm0 0"/><path d="m293.394531 173.605469c-6.1875-9.082031-19.589843-9.066407-25.769531 0-25.074219 36.804687-87.761719 135.835937-87.761719 180.601562 0 55.496094 45.152344 100.648438 100.648438 100.648438 55.496093 0 100.644531-45.152344 100.644531-100.648438 0-44.863281-63.15625-144.484375-87.761719-180.601562zm-12.882812 250.066406c-38.304688 0-69.46875-31.160156-69.46875-69.464844 0-26.800781 38.503906-95.457031 69.46875-143.5625 30.960937 48.09375 69.464843 116.742188 69.464843 143.5625 0 38.304688-31.160156 69.464844-69.464843 69.464844zm0 0"/><path d="m96.304688 282.777344c-6.175782-9.0625-19.578126-9.082032-25.769532 0-20.144531 29.550781-70.535156 109.050781-70.535156 145.804687 0 45.996094 37.421875 83.417969 83.421875 83.417969s83.421875-37.421875 83.421875-83.417969c0-36.753906-50.570312-116.5-70.539062-145.804687zm-12.882813 198.042968c-28.804687 0-52.242187-23.433593-52.242187-52.242187 0-23.96875 39.449218-88.332031 52.242187-108.5 12.789063 20.160156 52.242187 84.53125 52.242187 108.5 0 28.808594-23.4375 52.242187-52.242187 52.242187zm0 0"/></svg>