<svg height="512pt" viewBox="0 -17 512 512" width="512pt" xmlns="http://www.w3.org/2000/svg"><path d="m40.460938 96.269531h62.972656c8.59375 0 15.5625-6.96875 15.5625-15.5625s-6.96875-15.5625-15.5625-15.5625h-62.972656c-5.148438 0-9.335938-4.191406-9.335938-9.339843 0-5.144532 4.1875-9.335938 9.335938-9.335938h19.039062c8.59375 0 15.5625-6.96875 15.5625-15.5625s-6.96875-15.5625-15.5625-15.5625h-19.039062c-22.308594 0-40.460938 18.152344-40.460938 40.460938 0 22.3125 18.152344 40.464843 40.460938 40.464843zm0 0"/><path d="m222.085938 359.839844h-25.035157l19.265625-45.085938c126.390625 0 117.707032.035156 120.253906-.085937 29.289063-1.140625 55.046876-17.171875 69.398438-41.332031h90.46875c8.589844 0 15.5625-6.972657 15.5625-15.5625 0-8.601563-6.972656-15.5625-15.5625-15.5625h-79.503906c3.492187-24.570313-3.828125-49.203126-20.238282-67.832032 34.820313-82.699218-26.335937-174.378906-115.898437-174.378906-55.640625 0-102.949219 36.332031-119.4375 86.527344-40.210937 14.929687-70.121094 51.242187-75.859375 95.054687h-14.171875c-36.714844 0-66.585937 29.867188-66.585937 66.585938 0 36.714843 29.871093 66.585937 66.585937 66.585937h111.144531l-23.300781 54.527344c-4.378906 10.265625 3.152344 21.683594 14.308594 21.683594h24.691406l-29.277344 66.046875c-3.488281 7.851562.0625 17.046875 7.914063 20.53125 7.800781 3.46875 17.03125-.019531 20.53125-7.914063l38.96875-87.925781c4.546875-10.242187-2.945313-21.863281-14.222656-21.863281zm58.710937-328.714844c63.867187 0 109.648437 62.484375 90.09375 123.378906-18.835937-9.429687-40.574219-11.417968-61.023437-5.5625-19.949219-44.578125-65.46875-71.558594-111.4375-69.6875 16.257812-28.707031 47.082031-48.128906 82.367187-48.128906zm-209.46875 252.503906c-19.554687 0-35.460937-15.917968-35.460937-35.460937 0-19.558594 15.90625-35.460938 35.460937-35.460938h28.738281c8.292969 0 15.5625-6.570312 15.5625-15.78125.011719-30.378906 15.75-57.15625 39.488282-72.613281 13.996093-9.144531 30.3125-14.007812 47.171874-14.007812 38.710938 0 73.03125 26 83.457032 63.234374 2.695312 9.605469 13.589844 14.210938 22.324218 9.523438 40.207032-21.542969 87.457032 14.445312 77.242188 59.148438h-50.007812c-3.476563 0-6.347657-2.824219-6.347657-6.359376 0-3.507812 2.84375-6.359374 6.347657-6.359374h13.957031c8.667969 0 15.5625-7.050782 15.5625-15.5625 0-8.589844-6.972657-15.5625-15.5625-15.5625-12.480469 0-8.539063 0-13.957031 0-20.703126 0-37.472657 16.871093-37.472657 37.484374 0 20.566407 16.703125 37.484376 37.472657 37.484376h29.546874c-8.59375 6.289062-19.625 10.292968-31.601562 10.292968-2.835938 0-257.328125 0-261.921875 0zm0 0"/><path d="m55.652344 381.457031c-7.832032-3.546875-17.050782-.082031-20.601563 7.746094l-27.691406 61.066406c-3.546875 7.828125-.082031 17.050781 7.746094 20.597657 7.835937 3.554687 17.054687.074218 20.601562-7.746094l27.691407-61.0625c3.546874-7.828125.082031-17.050782-7.746094-20.601563zm0 0"/><path d="m80.933594 363.386719 5.113281-11.273438c3.546875-7.828125.078125-17.050781-7.746094-20.601562-7.828125-3.546875-17.050781-.082031-20.601562 7.746093l-5.113281 11.273438c-3.546876 7.828125-.078126 17.054688 7.746093 20.601562 7.839844 3.554688 17.054688.074219 20.601563-7.746093zm0 0"/><path d="m100.351562 421.890625c-7.828124-3.546875-17.050781-.082031-20.601562 7.746094l-9.355469 20.632812c-3.546875 7.828125-.082031 17.050781 7.746094 20.601563 7.835937 3.550781 17.054687.074218 20.601563-7.75l9.355468-20.628906c3.550782-7.828126.082032-17.050782-7.746094-20.601563zm0 0"/><path d="m141.335938 331.511719c-7.828126-3.546875-17.050782-.082031-20.601563 7.746093l-21.691406 47.839844c-3.550781 7.828125-.082031 17.050782 7.746093 20.597656 7.835938 3.554688 17.050782.074219 20.597657-7.746093l21.695312-47.835938c3.546875-7.828125.082031-17.050781-7.746093-20.601562zm0 0"/><path d="m282.4375 381.457031c-7.828125-3.546875-17.050781-.082031-20.601562 7.746094l-27.691407 61.066406c-3.550781 7.828125-.082031 17.050781 7.746094 20.597657 7.835937 3.554687 17.054687.074218 20.601563-7.746094l27.6875-61.0625c3.550781-7.828125.082031-17.050782-7.742188-20.601563zm0 0"/><path d="m312.828125 352.113281c3.550781-7.828125.082031-17.050781-7.742187-20.601562-7.828126-3.546875-17.050782-.082031-20.601563 7.746093l-5.113281 11.273438c-3.546875 7.828125-.082032 17.050781 7.746094 20.601562 7.835937 3.554688 17.054687.078126 20.601562-7.746093zm0 0"/><path d="m458.765625 185.105469h37.671875c8.59375 0 15.5625-6.96875 15.5625-15.5625s-6.96875-15.5625-15.5625-15.5625h-37.671875c-3.503906 0-6.355469-2.851563-6.355469-6.355469s2.851563-6.355469 6.355469-6.355469h13.949219c8.59375 0 15.5625-6.964843 15.5625-15.5625 0-8.59375-6.96875-15.558593-15.5625-15.558593h-13.949219c-20.667969 0-37.480469 16.8125-37.480469 37.476562 0 20.667969 16.8125 37.480469 37.480469 37.480469zm0 0"/><path d="m496.4375 420.042969h-152.453125c-3.503906 0-6.355469-2.847657-6.355469-6.351563 0-3.507812 2.851563-6.355468 6.355469-6.355468h13.949219c8.59375 0 15.5625-6.96875 15.5625-15.5625 0-8.597657-6.96875-15.5625-15.5625-15.5625h-13.949219c-20.667969 0-37.480469 16.8125-37.480469 37.480468 0 20.664063 16.816406 37.476563 37.480469 37.476563h152.453125c8.59375 0 15.5625-6.964844 15.5625-15.5625 0-8.59375-6.96875-15.5625-15.5625-15.5625zm0 0"/><path d="m422.320312 299.773438c-8.59375 0-15.5625 6.96875-15.5625 15.5625s6.96875 15.5625 15.5625 15.5625h64.921876c8.59375 0 15.5625-6.96875 15.5625-15.5625s-6.96875-15.5625-15.5625-15.5625zm0 0"/></svg>