<svg height="512pt" viewBox="-40 0 512 512.00103" width="512pt" xmlns="http://www.w3.org/2000/svg"><path d="m231.964844 105.117188v-21.335938c0-8.570312-6.945313-15.515625-15.511719-15.515625-8.570313 0-15.515625 6.945313-15.515625 15.515625v21.324219c-110.882812 7.792969-200.9375 100.105469-200.9375 215.90625 0 8.574219 6.949219 15.511719 15.515625 15.511719 8.574219 0 15.515625-6.9375 15.515625-15.511719 0-9.960938 14.261719-21.070313 34.722656-21.070313 18.96875 0 32.621094 9.558594 34.492188 18.886719-.011719.722656-.011719 1.457031-.011719 2.183594 0 8.269531 6.558594 15.511719 15.753906 15.511719 8.566407 0 15.515625-6.9375 15.515625-15.511719 0-9.960938 14.253906-21.070313 34.710938-21.070313 20.460937 0 34.722656 11.109375 34.722656 21.070313v139.722656c0 28.269531 22.996094 51.265625 51.265625 51.265625 28.265625 0 51.265625-22.996094 51.265625-51.265625v-20.257813c0-8.566406-6.949219-15.515624-15.515625-15.515624s-15.515625 6.949218-15.515625 15.515624v20.257813c0 11.160156-9.078125 20.238281-20.234375 20.238281-11.160156 0-20.238281-9.078125-20.238281-20.238281v-139.722656c0-9.960938 14.265625-21.070313 34.722656-21.070313 20.460938 0 34.710938 11.109375 34.710938 21.070313 0 8.574219 6.953124 15.511719 15.515624 15.511719 9.171876 0 15.753907-7.21875 15.753907-15.511719 0-.757813 0-1.511719-.011719-2.265625 1.875-9.226563 15.824219-18.804688 34.496094-18.804688 20.457031 0 34.722656 11.109375 34.722656 21.070313 0 8.574219 6.949219 15.511719 15.511719 15.511719 8.566406 0 15.515625-6.9375 15.515625-15.511719 0-114.136719-88.796875-207.917969-200.9375-215.894531zm-129.464844 172.566406c-19.652344-10.414063-44.8125-11.46875-65.441406-3.640625 14.625-55.800781 54.664062-101.425781 106.9375-123.714844-24.316406 35.78125-36.921875 83.996094-41.496094 127.355469zm98.4375-1.035156c-18.902344-9.230469-44.613281-10.929688-66.992188-1.136719 4.054688-33.617188 12.609376-64.386719 25.039063-89.34375 11.976563-24.027344 26.707031-40.402344 41.953125-47.136719zm31.027344 0v-137.5625c42.492187 21.242187 61.5625 89.425781 67.035156 136.445312-22.820312-10.054688-49.328125-7.734375-67.035156 1.117188zm98.449218 1.074218c-4.570312-43.34375-17.066406-91.347656-41.496093-127.394531 52.28125 22.277344 92.3125 67.902344 106.925781 123.714844-20.414062-7.746094-45.539062-6.890625-65.429688 3.679687zm0 0"/><path d="m15.515625 64.128906c8.570313 0 15.515625-6.949218 15.515625-15.515625v-33.097656c0-8.570313-6.945312-15.515625-15.515625-15.515625-8.566406 0-15.515625 6.945312-15.515625 15.515625v33.097656c0 8.566407 6.945312 15.515625 15.515625 15.515625zm0 0"/><path d="m149.472656 64.128906c8.566406 0 15.515625-6.949218 15.515625-15.515625v-33.097656c0-8.570313-6.949219-15.515625-15.515625-15.515625s-15.515625 6.945312-15.515625 15.515625v33.097656c0 8.566407 6.949219 15.515625 15.515625 15.515625zm0 0"/><path d="m283.429688 64.128906c8.570312 0 15.515624-6.949218 15.515624-15.515625v-33.097656c0-8.570313-6.945312-15.515625-15.515624-15.515625-8.566407 0-15.511719 6.945312-15.511719 15.515625v33.097656c0 8.566407 6.945312 15.515625 15.511719 15.515625zm0 0"/><path d="m417.386719 64.128906c8.570312 0 15.515625-6.949218 15.515625-15.515625v-33.097656c0-8.570313-6.945313-15.515625-15.515625-15.515625-8.566407 0-15.515625 6.945312-15.515625 15.515625v33.097656c0 8.566407 6.949218 15.515625 15.515625 15.515625zm0 0"/><path d="m15.515625 186.34375c8.570313 0 15.515625-6.949219 15.515625-15.515625v-33.097656c0-8.570313-6.945312-15.515625-15.515625-15.515625-8.566406 0-15.515625 6.945312-15.515625 15.515625v33.097656c0 8.566406 6.945312 15.515625 15.515625 15.515625zm0 0"/><path d="m417.386719 186.34375c8.570312 0 15.515625-6.949219 15.515625-15.515625v-33.097656c0-8.570313-6.945313-15.515625-15.515625-15.515625-8.566407 0-15.515625 6.945312-15.515625 15.515625v33.097656c0 8.566406 6.949218 15.515625 15.515625 15.515625zm0 0"/><path d="m78.074219 123.828125c8.570312 0 15.515625-6.949219 15.515625-15.515625v-33.097656c0-8.570313-6.945313-15.515625-15.515625-15.515625-8.566407 0-15.511719 6.945312-15.511719 15.515625v33.097656c0 8.566406 6.945312 15.515625 15.511719 15.515625zm0 0"/><path d="m354.828125 123.828125c8.566406 0 15.511719-6.949219 15.511719-15.515625v-33.097656c0-8.570313-6.945313-15.515625-15.511719-15.515625-8.570313 0-15.515625 6.945312-15.515625 15.515625v33.097656c0 8.566406 6.945312 15.515625 15.515625 15.515625zm0 0"/></svg>